<?xml version="1.0" encoding="utf-8"?>
<!-- Generator: Adobe Illustrator 23.0.1, SVG Export Plug-In . SVG Version: 6.00 Build 0)  -->
<svg version="1.1" id="Layer_1" xmlns="http://www.w3.org/2000/svg" xmlns:xlink="http://www.w3.org/1999/xlink" x="0px" y="0px"
	 viewBox="0 0 640 512" style="enable-background:new 0 0 640 512;" xml:space="preserve">
<style type="text/css">
	.st0{fill:#FFFFFF;}
</style>
<path class="st0" d="M352,288h-16v-88c0-4.4-3.6-8-8-8h-13.6c-4.7,0-9.4,1.4-13.3,4l-15.3,10.2c-3.7,2.4-4.7,7.4-2.2,11.1
	c0,0,0,0,0,0l8.9,13.3c2.4,3.7,7.4,4.7,11.1,2.2c0,0,0,0,0,0l0.5-0.3V288h-16c-4.4,0-8,3.6-8,8v16c0,4.4,3.6,8,8,8h64
	c4.4,0,8-3.6,8-8v-16C360,291.6,356.4,288,352,288L352,288z M608,64H32C14.3,64,0,78.3,0,96v320c0,17.7,14.3,32,32,32h576
	c17.7,0,32-14.3,32-32V96C640,78.3,625.7,64,608,64z M48,400v-64c35.3,0,64,28.6,64,64H48z M48,176v-64h64
	C112,147.4,83.3,176,48,176z M320,368c-53,0-96-50.1-96-112c0-61.9,43-112,96-112s96,50.1,96,112C416,317.9,373,368,320,368z
	 M592,400h-64c0-35.4,28.7-64,64-64V400z M592,176c-35.3,0-64-28.6-64-64h64V176z"/>
</svg>
